<?xml version="1.0" encoding="UTF-8" standalone="no"?>
<!DOCTYPE svg PUBLIC "-//W3C//DTD SVG 1.1//EN"
 "http://www.w3.org/Graphics/SVG/1.1/DTD/svg11.dtd">
<!-- Generated by graphviz version 2.42.4 (0)
 -->
<!-- Title: osmo_init_flowchart Pages: 1 -->
<svg width="622pt" height="370pt"
 viewBox="0.00 0.00 621.80 369.80" xmlns="http://www.w3.org/2000/svg" xmlns:xlink="http://www.w3.org/1999/xlink">
<g id="graph0" class="graph" transform="scale(1 1) rotate(0) translate(14.4 355.4)">
<title>osmo_init_flowchart</title>
<polygon fill="white" stroke="transparent" points="-14.4,14.4 -14.4,-355.4 607.4,-355.4 607.4,14.4 -14.4,14.4"/>
<!-- A -->
<g id="node1" class="node">
<title>A</title>
<path fill="none" stroke="black" d="M272,-341C272,-341 12,-341 12,-341 6,-341 0,-335 0,-329 0,-329 0,-302 0,-302 0,-296 6,-290 12,-290 12,-290 272,-290 272,-290 278,-290 284,-296 284,-302 284,-302 284,-329 284,-329 284,-335 278,-341 272,-341"/>
<text text-anchor="start" x="88.5" y="-325.4" font-family="Helvetica,sans-Serif" font-size="12.00">Data&#45;layer inputs:</text>
<text text-anchor="start" x="48" y="-312.4" font-family="Helvetica,sans-Serif" font-size="12.00">biomass, yield, catch&#45;at&#45;length,</text>
<text text-anchor="start" x="11" y="-299.4" font-family="Helvetica,sans-Serif" font-size="12.00">egg&#45;stage duration, optional biomass guess</text>
</g>
<!-- C -->
<g id="node3" class="node">
<title>C</title>
<path fill="none" stroke="black" d="M406.5,-254C406.5,-254 185.5,-254 185.5,-254 179.5,-254 173.5,-248 173.5,-242 173.5,-242 173.5,-228 173.5,-228 173.5,-222 179.5,-216 185.5,-216 185.5,-216 406.5,-216 406.5,-216 412.5,-216 418.5,-222 418.5,-228 418.5,-228 418.5,-242 418.5,-242 418.5,-248 412.5,-254 406.5,-254"/>
<text text-anchor="start" x="184.5" y="-238.4" font-family="Helvetica,sans-Serif" font-size="12.00">Internal single&#45;species reconstruction</text>
<text text-anchor="start" x="210" y="-225.4" font-family="Helvetica,sans-Serif" font-size="12.00">of initial population structure</text>
</g>
<!-- A&#45;&gt;C -->
<g id="edge1" class="edge">
<title>A&#45;&gt;C</title>
<path fill="none" stroke="black" d="M228.75,-289.59C228.75,-289.59 228.75,-262.23 228.75,-262.23"/>
<polygon fill="black" stroke="black" points="231.55,-262.23 228.75,-254.23 225.95,-262.23 231.55,-262.23"/>
</g>
<!-- B -->
<g id="node2" class="node">
<title>B</title>
<path fill="none" stroke="black" d="M581,-341C581,-341 321,-341 321,-341 315,-341 309,-335 309,-329 309,-329 309,-302 309,-302 309,-296 315,-290 321,-290 321,-290 581,-290 581,-290 587,-290 593,-296 593,-302 593,-302 593,-329 593,-329 593,-335 587,-341 581,-341"/>
<text text-anchor="start" x="320" y="-325.4" font-family="Helvetica,sans-Serif" font-size="12.00">Regular OSMOSE species parameterisation:</text>
<text text-anchor="start" x="367.5" y="-312.4" font-family="Helvetica,sans-Serif" font-size="12.00">growth, maturity, fecundity,</text>
<text text-anchor="start" x="353" y="-299.4" font-family="Helvetica,sans-Serif" font-size="12.00">length&#45;weight, lifespan, sex ratio</text>
</g>
<!-- B&#45;&gt;C -->
<g id="edge2" class="edge">
<title>B&#45;&gt;C</title>
<path fill="none" stroke="black" d="M363.75,-289.59C363.75,-289.59 363.75,-262.23 363.75,-262.23"/>
<polygon fill="black" stroke="black" points="366.55,-262.23 363.75,-254.23 360.95,-262.23 366.55,-262.23"/>
</g>
<!-- D -->
<g id="node4" class="node">
<title>D</title>
<path fill="none" stroke="black" d="M412,-180C412,-180 180,-180 180,-180 174,-180 168,-174 168,-168 168,-168 168,-156 168,-156 168,-150 174,-144 180,-144 180,-144 412,-144 412,-144 418,-144 424,-150 424,-156 424,-156 424,-168 424,-168 424,-174 418,-180 412,-180"/>
<text text-anchor="start" x="179" y="-158.9" font-family="Helvetica,sans-Serif" font-size="12.00">Generation of population.initialization.*</text>
</g>
<!-- C&#45;&gt;D -->
<g id="edge3" class="edge">
<title>C&#45;&gt;D</title>
<path fill="none" stroke="black" d="M296,-215.82C296,-215.82 296,-188.3 296,-188.3"/>
<polygon fill="black" stroke="black" points="298.8,-188.3 296,-180.3 293.2,-188.3 298.8,-188.3"/>
</g>
<!-- E -->
<g id="node5" class="node">
<title>E</title>
<path fill="none" stroke="black" d="M366.5,-108C366.5,-108 225.5,-108 225.5,-108 219.5,-108 213.5,-102 213.5,-96 213.5,-96 213.5,-84 213.5,-84 213.5,-78 219.5,-72 225.5,-72 225.5,-72 366.5,-72 366.5,-72 372.5,-72 378.5,-78 378.5,-84 378.5,-84 378.5,-96 378.5,-96 378.5,-102 372.5,-108 366.5,-108"/>
<text text-anchor="start" x="224.5" y="-86.9" font-family="Helvetica,sans-Serif" font-size="12.00">OSMOSE core simulator</text>
</g>
<!-- D&#45;&gt;E -->
<g id="edge4" class="edge">
<title>D&#45;&gt;E</title>
<path fill="none" stroke="black" d="M296,-143.83C296,-143.83 296,-116.41 296,-116.41"/>
<polygon fill="black" stroke="black" points="298.8,-116.41 296,-108.41 293.2,-116.41 298.8,-116.41"/>
</g>
<!-- F -->
<g id="node6" class="node">
<title>F</title>
<path fill="none" stroke="black" d="M408,-36C408,-36 184,-36 184,-36 178,-36 172,-30 172,-24 172,-24 172,-12 172,-12 172,-6 178,0 184,0 184,0 408,0 408,0 414,0 420,-6 420,-12 420,-12 420,-24 420,-24 420,-30 414,-36 408,-36"/>
<text text-anchor="start" x="183" y="-14.9" font-family="Helvetica,sans-Serif" font-size="12.00">Creation of initial schools at time zero</text>
</g>
<!-- E&#45;&gt;F -->
<g id="edge5" class="edge">
<title>E&#45;&gt;F</title>
<path fill="none" stroke="black" d="M296,-71.83C296,-71.83 296,-44.41 296,-44.41"/>
<polygon fill="black" stroke="black" points="298.8,-44.41 296,-36.41 293.2,-44.41 298.8,-44.41"/>
</g>
</g>
</svg>
